<?xml version="1.0" encoding="UTF-8"?>
<svg xmlns="http://www.w3.org/2000/svg" xmlns:xlink="http://www.w3.org/1999/xlink" width="655pt" height="150pt" viewBox="0 0 655 150" version="1.1">
<defs>
<clipPath id="clip1">
  <path d="M 302 25 L 353 25 L 353 125 L 302 125 Z M 302 25 "/>
</clipPath>
<clipPath id="clip2">
  <path d="M 352.5 75 C 352.5 102.613281 330.113281 125 302.5 125 C 274.886719 125 252.5 102.613281 252.5 75 C 252.5 47.386719 274.886719 25 302.5 25 C 330.113281 25 352.5 47.386719 352.5 75 "/>
</clipPath>
</defs>
<g id="surface22">
<path style="fill-rule:nonzero;fill:rgb(80.392157%,36.078431%,36.078431%);fill-opacity:1;stroke-width:1;stroke-linecap:butt;stroke-linejoin:miter;stroke:rgb(0%,0%,0%);stroke-opacity:1;stroke-miterlimit:10;" d="M 237.5 135 L 237.5 15 L 417.5 15 L 417.5 135 Z M 237.5 135 "/>
<path style=" stroke:none;fill-rule:nonzero;fill:rgb(100%,100%,100%);fill-opacity:1;" d="M 352.5 75 C 352.5 102.613281 330.113281 125 302.5 125 C 274.886719 125 252.5 102.613281 252.5 75 C 252.5 47.386719 274.886719 25 302.5 25 C 330.113281 25 352.5 47.386719 352.5 75 "/>
<path style=" stroke:none;fill-rule:nonzero;fill:rgb(100%,100%,100%);fill-opacity:1;" d="M 402.5 75 C 402.5 102.613281 380.113281 125 352.5 125 C 324.886719 125 302.5 102.613281 302.5 75 C 302.5 47.386719 324.886719 25 352.5 25 C 380.113281 25 402.5 47.386719 402.5 75 "/>
<g clip-path="url(#clip1)" clip-rule="nonzero">
<g clip-path="url(#clip2)" clip-rule="nonzero">
<path style=" stroke:none;fill-rule:nonzero;fill:rgb(80.392157%,36.078431%,36.078431%);fill-opacity:1;" d="M 402.5 75 C 402.5 102.613281 380.113281 125 352.5 125 C 324.886719 125 302.5 102.613281 302.5 75 C 302.5 47.386719 324.886719 25 352.5 25 C 380.113281 25 402.5 47.386719 402.5 75 "/>
</g>
</g>
<path style="fill:none;stroke-width:1;stroke-linecap:butt;stroke-linejoin:miter;stroke:rgb(0%,0%,0%);stroke-opacity:1;stroke-miterlimit:10;" d="M 352.5 75 C 352.5 102.613281 330.113281 125 302.5 125 C 274.886719 125 252.5 102.613281 252.5 75 C 252.5 47.386719 274.886719 25 302.5 25 C 330.113281 25 352.5 47.386719 352.5 75 "/>
<path style="fill:none;stroke-width:1;stroke-linecap:butt;stroke-linejoin:miter;stroke:rgb(0%,0%,0%);stroke-opacity:1;stroke-miterlimit:10;" d="M 402.5 75 C 402.5 102.613281 380.113281 125 352.5 125 C 324.886719 125 302.5 102.613281 302.5 75 C 302.5 47.386719 324.886719 25 352.5 25 C 380.113281 25 402.5 47.386719 402.5 75 "/>
</g>
</svg>
